<?xml version="1.0" encoding="UTF-8"?>
<svg id="_Слой_1" data-name="Слой 1" xmlns="http://www.w3.org/2000/svg" viewBox="0 0 595.28 841.89">
  <defs>
    <style>
      .cls-1, .cls-2 {
        fill: #fff;
      }

      .cls-3 {
        fill: #009fe3;
      }

      .cls-2 {
        font-family: MyriadPro-Regular, 'Myriad Pro';
        font-size: 49.13px;
      }
    </style>
  </defs>
  <path class="cls-3" d="M340.09,381.08l2.11,1.55c2.05,1.5,3.24,3.73,3.24,6.08v78.92c0,2.14-.98,4.19-2.73,5.68h0c-1.68,1.44-3.94,2.24-6.28,2.24h-80.59c-2.67,0-5.21-1.04-6.92-2.85l-.41-.44c-1.35-1.42-2.09-3.22-2.09-5.07v-77.99c0-1.95.3-4.85,1.78-6.3l3.42-1.83"/>
  <path class="cls-1" d="M259.61,387.64h70.03c2.08,0,4.09.66,5.66,1.86h0c1.86,1.42,2.93,3.47,2.96,5.64l.73,65.35c.02,1.73-.64,3.41-1.86,4.77l-.78.87c-1.63,1.82-4.12,2.87-6.76,2.87h-67.31c-2.51,0-4.9-.96-6.53-2.64l-.79-.81c-1.34-1.37-2.08-3.12-2.08-4.93v-63.67c0-2.75,1.14-5.4,3.2-7.46l1.85-1.85"/>
  <path class="cls-3" d="M259.5,389.84l-1.63,1.33c-1.52,1.24-2.38,2.97-2.38,4.79v64.32c0,1.92.87,3.75,2.41,5.11l1.61,1.41h73.01l1.32-1.21c1.63-1.49,2.54-3.48,2.54-5.55v-63.29c0-2.18-.91-4.29-2.56-5.92l-1.01-.99"/>
  <path class="cls-1" d="M263.3,458.99c1.54,1,1.86,2.91.72,4.26s-3.31,1.64-4.85.64-1.86-2.91-.72-4.26,3.31-1.64,4.85-.64Z"/>
  <ellipse class="cls-1" cx="330.23" cy="461.44" rx="3.47" ry="3.05"/>
  <ellipse class="cls-1" cx="261.23" cy="395.32" rx="3.47" ry="3.05"/>
  <ellipse class="cls-1" cx="330.23" cy="395.32" rx="3.47" ry="3.05"/>
  <text class="cls-2" transform="translate(271.64 442.05) scale(1.14 1)"><tspan x="0" y="0">AI</tspan></text>
  <rect class="cls-3" x="258.44" y="370.65" width="3.47" height="10.43"/>
  <rect class="cls-3" x="271.97" y="370.65" width="3.47" height="10.43"/>
  <rect class="cls-3" x="278.14" y="370.65" width="3.47" height="10.43"/>
  <rect class="cls-3" x="328.49" y="475.55" width="3.47" height="10.43"/>
  <rect class="cls-3" x="334.64" y="370.65" width="3.47" height="10.43"/>
  <rect class="cls-3" x="329.44" y="370.65" width="3.47" height="10.43"/>
  <rect class="cls-3" x="322.46" y="370.65" width="3.47" height="10.43"/>
  <rect class="cls-3" x="310.28" y="370.85" width="3.47" height="10.43"/>
  <rect class="cls-3" x="303.71" y="370.65" width="3.47" height="10.43"/>
  <rect class="cls-3" x="291.12" y="370.85" width="3.47" height="10.43"/>
  <rect class="cls-3" x="258.18" y="475.55" width="3.47" height="10.43"/>
  <rect class="cls-3" x="263.99" y="475.55" width="3.47" height="10.43"/>
  <rect class="cls-3" x="283.3" y="475.28" width="3.47" height="10.43"/>
  <rect class="cls-3" x="289.7" y="475.55" width="3.47" height="10.43"/>
  <rect class="cls-3" x="296.3" y="475.55" width="3.47" height="10.43"/>
  <rect class="cls-3" x="308.81" y="475.55" width="3.47" height="10.43"/>
  <rect class="cls-3" x="321.73" y="475.55" width="3.47" height="10.43"/>
  <rect class="cls-3" x="236.01" y="462.97" width="10.41" height="3.05"/>
  <rect class="cls-3" x="345.45" y="408.28" width="10.41" height="3.05"/>
  <rect class="cls-3" x="345.45" y="396.2" width="10.41" height="3.05"/>
  <rect class="cls-3" x="345.45" y="384.11" width="10.41" height="3.05"/>
  <rect class="cls-3" x="345.45" y="413.84" width="10.41" height="3.05"/>
  <rect class="cls-3" x="345.45" y="426.42" width="10.41" height="3.05"/>
  <rect class="cls-3" x="236.01" y="384.59" width="15.02" height="3.05"/>
  <rect class="cls-3" x="236.01" y="395.53" width="10.41" height="3.05"/>
  <rect class="cls-3" x="236.01" y="402.16" width="10.41" height="3.05"/>
  <rect class="cls-3" x="236.01" y="419.74" width="10.41" height="3.05"/>
  <rect class="cls-3" x="345.45" y="438.39" width="10.41" height="3.05"/>
  <rect class="cls-3" x="345.45" y="444.38" width="10.41" height="3.05"/>
  <rect class="cls-3" x="345.45" y="456.87" width="10.41" height="3.05"/>
  <rect class="cls-3" x="236.01" y="426.79" width="10.41" height="3.05"/>
  <rect class="cls-3" x="236.01" y="432.17" width="10.41" height="3.05"/>
  <rect class="cls-3" x="236.01" y="450.98" width="10.41" height="3.05"/>
  <rect class="cls-3" x="236.01" y="456.87" width="10.41" height="3.05"/>
  <rect class="cls-3" x="345.45" y="462.97" width="10.41" height="3.05"/>
  <rect class="cls-3" x="344.85" y="467.47" width="10.41" height="3.05"/>
  <polyline class="cls-3" points="276.9 475.55 276.9 550.18 252.87 574.23 231.79 574.23 231.79 578.93 252.87 578.93 280.37 552.8 280.37 475.55"/>
  <ellipse class="cls-3" cx="231.52" cy="576.93" rx="4.98" ry="4.38"/>
  <polyline class="cls-3" points="306.24 475.55 306.24 561.94 316.55 569 316.55 596.18 314.97 597.22 311.83 595.92 311.83 570.31 302.77 563.51 302.77 474.66"/>
  <polyline class="cls-3" points="318.63 475.55 318.63 545.22 331.96 553.32 331.96 571.85 328.63 571.85 328.63 556.19 314.97 548.09 314.97 475.55"/>
  <ellipse class="cls-3" cx="330.56" cy="575.01" rx="4.98" ry="4.38"/>
  <polyline class="cls-3" points="269.86 475.55 269.86 512.03 242.2 536.86 215.44 536.86 181.83 568.74 181.83 570.04 183.91 571.85 187.19 569 216.92 540.78 246.42 540.78 274.78 513.34 274.78 475.55"/>
  <polyline class="cls-3" points="251.71 474.66 251.71 501.32 234.47 518.56 193.43 518.56 158.93 551.23 158.93 553.58 161.91 553.58 194.03 522.48 237 522.48 255.49 503.67 255.84 475.55"/>
  <polyline class="cls-3" points="248.79 472.11 218.41 472.11 209.77 485.18 184.21 485.18 165.77 501.9 162.8 499.03 181.83 481.26 207.11 481.52 215.44 469.06 247.06 469.06"/>
  <ellipse class="cls-3" cx="161.06" cy="391" rx="4.42" ry="3.89"/>
  <polyline class="cls-3" points="246.42 447.72 176.43 447.72 167.81 461.44 144.61 461.44 144.61 456.87 165.65 456.87 173.46 444.67 246.42 443.56"/>
  <ellipse class="cls-3" cx="141.65" cy="353.01" rx="4.42" ry="3.89"/>
  <polyline class="cls-3" points="248.15 441.62 158.59 441.62 152.04 452.29 123.49 452.29 122.31 450.77 122.31 447.72 150.26 447.72 155.69 437.55 246.42 437.55"/>
  <polyline class="cls-3" points="247.01 417.26 169.59 417.26 127.36 375.87 127.36 373.79 130.63 373.79 171.97 414.22 247.01 414.22"/>
  <polyline class="cls-3" points="338.46 475.55 338.46 478.14 338.46 507.24 352.24 514.38 352.24 539.3 371.37 557.41 369.19 560.2 347.97 540.43 348.07 516.73 334.49 509.68 334.49 475.55"/>
  <polyline class="cls-3" points="337.6 477.97 366.21 477.97 431.94 540.6 433.72 540.6 434.91 539.73 434.91 537.73 367.11 473.79 340.45 473.79 337.6 475.38 336.38 476.75"/>
  <ellipse class="cls-3" cx="373.65" cy="561.42" rx="4.98" ry="4.38"/>
  <ellipse class="cls-3" cx="461.42" cy="430.13" rx="4.82" ry="3.98"/>
  <ellipse class="cls-3" cx="416.1" cy="462.97" rx="4.98" ry="4.38"/>
  <ellipse class="cls-3" cx="413.05" cy="486.87" rx="4.98" ry="4.38"/>
  <ellipse class="cls-3" cx="289.29" cy="526.38" rx="4.98" ry="4.38"/>
  <ellipse class="cls-3" cx="216.11" cy="497.46" rx="4.98" ry="4.38"/>
  <path class="cls-3" d="M383.51,526.01c0,1.56-.93,2.94-2.34,3.71-.77.42-1.67.67-2.64.67-2.75,0-4.98-1.96-4.98-4.38s2.23-4.38,4.98-4.38,4.98,1.96,4.98,4.38Z"/>
  <polyline class="cls-3" points="408.99 551.14 408.99 552.27 408.2 552.58 407.3 552.41 381.03 529.41 382.92 527.93 408.99 550.88"/>
  <polyline class="cls-3" points="290.78 529.89 290.78 600.79 289.59 601.4 288.4 601.4 288.4 600.62 287.8 600.53 287.8 529.89"/>
  <polyline class="cls-3" points="212.27 499.03 186.29 499.03 144.56 532.85 142.97 532.85 142.48 532.24 142.48 531.19 185.5 496.44 212.27 496.44"/>
  <polyline class="cls-3" points="117.89 423.44 202.55 423.44 202.55 426.14 118.39 426.14 117.89 425.44 117.89 424.75 117.89 424.22 117.89 423.44 118.49 423.44"/>
  <ellipse class="cls-3" cx="206.17" cy="424.79" rx="4.98" ry="4.38"/>
  <polyline class="cls-3" points="248.79 411.37 210.68 411.37 135.74 339.77 135.74 338.46 136.48 337.16 138.56 336.5 211.87 407.26 247.06 407.26"/>
  <polyline class="cls-3" points="246.42 389.21 219.75 389.21 177.07 348.44 174.4 350.66 218.11 393.26 246.42 393.26"/>
  <ellipse class="cls-3" cx="173.65" cy="347.39" rx="4.98" ry="4.38"/>
  <ellipse class="cls-3" cx="204.66" cy="349.42" rx="4.98" ry="4.38"/>
  <polyline class="cls-3" points="200.72 347.39 202.8 345.43 176.03 318.91 174.4 318.91 173.65 319.69 173.65 321.39"/>
  <polyline class="cls-3" points="251.72 381.19 251.72 356.1 225.25 332.45 225.25 298.35 229.56 298.35 229.71 331.8 255.49 354.67 255.49 381.95 250.83 381.95"/>
  <ellipse class="cls-3" cx="226.81" cy="294.78" rx="4.98" ry="4.38"/>
  <polyline class="cls-3" points="264.95 381.08 264.7 313.16 240.37 289.12 240.37 262.46 242.2 261.15 244.68 262.2 244.68 288.07 269.26 311.33 269.26 381.08"/>
  <polyline class="cls-3" points="284.36 381.08 284.04 258.11 285.03 257.63 285.67 257.23 286.56 257.23 287.11 257.23 287.65 257.63 288.1 257.84 288.64 258.37 288.89 258.85 288.3 381.08"/>
  <polyline class="cls-3" points="301.38 381.08 301.38 346.7 315.06 334.41 315.06 280.49 310.7 280.49 310.01 332.67 297.36 345.04 297.36 345.65 297.36 381.08"/>
  <ellipse class="cls-3" cx="312.91" cy="277.29" rx="4.98" ry="4.38"/>
  <polyline class="cls-3" points="345.45 454.41 373.55 454.41 408.99 486.29 411.12 482.89 374.84 450.38 345.45 450.38"/>
  <polyline class="cls-3" points="474.46 486.87 437.88 486.29 417.22 466.8 419 465.38 438.48 483.41 474.46 484.59"/>
  <polyline class="cls-3" points="345.45 436.11 385.4 436.11 399.08 448.92 458.4 448.92 458.4 444.67 400.56 444.67 387.03 431.93 345.45 431.93"/>
  <polyline class="cls-3" points="345.45 423.96 436.15 423.96 447.75 414.09 474.96 413.38 475.85 411.33 475.26 409.81 446.11 409.81 433.77 419.52 345.45 420.17"/>
  <path class="cls-3" d="M345.45,405.41h78.31l24.68-24.13h26.91l.5-1.74-.35-.91-1.04-.65h-27.51l-25.87,23.26-75.64.39"/>
  <ellipse class="cls-3" cx="432.15" cy="337.91" rx="4.98" ry="4.38"/>
  <ellipse class="cls-3" cx="394.99" cy="340.79" rx="4.98" ry="4.38"/>
  <ellipse class="cls-3" cx="332.22" cy="318.32" rx="4.98" ry="4.38"/>
  <polyline class="cls-3" points="345.45 393.65 377.96 393.65 430.9 341.77 427.92 339.55 375.73 389.84 346.13 389.35 345.45 389.34"/>
  <polyline class="cls-3" points="345.45 388.71 345.45 363.07 411.86 300.75 411.86 299.7 411.86 298.39 411.86 297.48 410.65 297.48 409.34 297.48 341.68 361.11 341.23 381.92"/>
  <polyline class="cls-3" points="398.33 339.55 427.03 314.73 427.03 313.55 425.84 313.55 425.1 312.9 397.29 337.2"/>
  <polyline class="cls-3" points="320.56 381.28 320.56 358.5 356.7 324.53 356.7 263.38 355.51 261.94 354.62 261.94 353.43 261.94 351.94 262.72 351.64 323.35 316.4 356.93 316.4 381.08"/>
  <polyline class="cls-3" points="333.48 314.73 333.48 263.51 332.76 262.72 331.72 262.72 330.97 263.38 330.97 314.73"/>
</svg>